<svg width="116" height="24" viewBox="0 0 116 24" fill="none" xmlns="http://www.w3.org/2000/svg">
<path fill-rule="evenodd" clip-rule="evenodd" d="M20.0053 16.4261L33.8817 8.45752L20.0053 0.48761L6.12848 8.45778L20.0053 16.4261ZM9.50684 8.32981L20.0053 2.30247L30.5026 8.33032L27.0719 10.2991L20.0053 6.24156L12.9375 10.3006L9.50684 8.32981ZM20.0053 11.4663L17.4982 12.9184L14.9911 11.4784L20.0053 8.59683L25.0203 11.4784L22.5225 12.9129L20.0053 11.4663Z" fill="#5D4AF6"/>
<path d="M20.0053 20.1419L0 8.65301V12.119L20.0053 23.6027L40 12.119V8.65301L20.0053 20.1419Z" fill="#5D4AF6"/>
<g clip-path="url(#clip0_1497_121546)">
<path d="M48.1187 21.483V2.31349H55.3202C56.8227 2.31349 58.0747 2.62435 59.0764 3.24606C60.078 3.85051 60.8292 4.63628 61.3301 5.6034C61.8309 6.55324 62.0813 7.55491 62.0813 8.60835C62.0813 9.66179 61.8309 10.6721 61.3301 11.6392C60.8292 12.6063 60.078 13.4007 59.0764 14.0224C58.0747 14.6269 56.8227 14.9291 55.3202 14.9291H51.1495V21.483H48.1187ZM55.3202 4.95578H51.1495V12.2868H55.3202C56.1491 12.2868 56.8399 12.1141 57.3926 11.7687C57.9452 11.4061 58.3597 10.9484 58.636 10.3958C58.9123 9.82587 59.0505 9.23871 59.0505 8.63425C59.0505 8.01254 58.9123 7.42538 58.636 6.87273C58.3597 6.30283 57.9452 5.84518 57.3926 5.49978C56.8399 5.13711 56.1491 4.95578 55.3202 4.95578ZM73.7967 21.7421C72.2079 21.7421 70.8263 21.4658 69.652 20.9131C68.4949 20.3605 67.5278 19.6179 66.7507 18.6853C65.9735 17.7355 65.395 16.682 65.015 15.5249C64.6351 14.3506 64.4451 13.1503 64.4451 11.9242C64.4451 10.698 64.6351 9.49776 65.015 8.3234C65.395 7.14903 65.9735 6.09559 66.7507 5.16302C67.545 4.21317 68.5294 3.46193 69.7038 2.9093C70.8954 2.3394 72.2856 2.05444 73.8745 2.05444C75.1179 2.05444 76.18 2.20987 77.0607 2.52073C77.9415 2.83159 78.6841 3.23743 79.2886 3.73825C79.893 4.22181 80.3766 4.7399 80.7392 5.29254C81.1019 5.84517 81.3782 6.3719 81.5682 6.87273C81.7582 7.37357 81.8877 7.7794 81.9567 8.09026C82.0258 8.40111 82.0604 8.55654 82.0604 8.55654H79.0295C79.0295 8.55654 78.995 8.42702 78.9259 8.16797C78.8568 7.90892 78.7187 7.59806 78.5114 7.2354C78.3214 6.85548 78.0365 6.47552 77.6566 6.09559C77.2766 5.71565 76.7758 5.40479 76.1541 5.16302C75.5496 4.90397 74.7984 4.77445 73.9004 4.77445C72.8296 4.77445 71.8884 4.98168 71.0767 5.39616C70.2823 5.79336 69.6174 6.32873 69.0821 7.00225C68.564 7.67578 68.1754 8.43567 67.9164 9.28187C67.6573 10.1281 67.5278 10.9916 67.5278 11.8724C67.5278 12.7704 67.6573 13.6511 67.9164 14.5146C68.1927 15.3608 68.5899 16.1294 69.108 16.8202C69.6433 17.4937 70.2996 18.029 71.0767 18.4263C71.8711 18.8235 72.7951 19.0221 73.8486 19.0221C75.4892 19.0221 76.793 18.5558 77.7602 17.6232C78.7273 16.6906 79.2627 15.43 79.3663 13.8411H73.9004V11.4061H82.2935V12.779C82.2935 14.7478 81.9136 16.397 81.1537 17.7268C80.4111 19.0566 79.3922 20.0583 78.0969 20.7318C76.819 21.4053 75.3856 21.7421 73.7967 21.7421Z" fill="#202635"/>
<path d="M87.4008 11.2247C86.8654 11.2247 86.4164 11.0434 86.0537 10.6807C85.7083 10.3008 85.5356 9.86041 85.5356 9.35957C85.5356 8.84148 85.7083 8.4011 86.0537 8.03843C86.4164 7.67576 86.8654 7.49443 87.4008 7.49443C87.9361 7.49443 88.3765 7.67576 88.7219 8.03843C89.0846 8.4011 89.2659 8.84148 89.2659 9.35957C89.2659 9.86041 89.0846 10.3008 88.7219 10.6807C88.3765 11.0434 87.9361 11.2247 87.4008 11.2247ZM87.4008 21.742C86.8654 21.742 86.4164 21.5607 86.0537 21.198C85.7083 20.8181 85.5356 20.3777 85.5356 19.8769C85.5356 19.3588 85.7083 18.9184 86.0537 18.5558C86.4164 18.1931 86.8654 18.0118 87.4008 18.0118C87.9361 18.0118 88.3765 18.1931 88.7219 18.5558C89.0846 18.9184 89.2659 19.3588 89.2659 19.8769C89.2659 20.395 89.0846 20.8354 88.7219 21.198C88.3765 21.5607 87.9361 21.742 87.4008 21.742ZM92.3423 21.483L99.0256 2.31348H102.911L109.621 21.483H106.434L104.958 17.1828H97.0051L95.5285 21.483H92.3423ZM97.9117 14.4887H104.051L100.994 5.55157L97.9117 14.4887ZM112.627 21.483V2.31348H115.658V21.483H112.627Z" fill="#5D4AF6"/>
</g>
<defs>
<clipPath id="clip0_1497_121546">
<rect width="68" height="19.8912" fill="white" transform="translate(48 2.05444)"/>
</clipPath>
</defs>
</svg>
